. 
  
http://www.torrentday.com/        :     The Hottest Private Tracker On The Net!!!


               www . TorrentDay . Com 
(((((((((((((= Enjoy No RAR releases =))))))))))))))))))))


...................................NFO:....................................

.[img]http://leetleech.org/images/40489288747878373932.png[/img]

[b]Operation Endgame 2010 480p BRRip XviD AC3-LEGi0N

[img]http://leetleech.org/images/48874973695367351744.png[/img]
[color=red]General[/color]
Format: AVI
File size: 1.45 GiB
Duration: 1h 22mn
Overall bit rate: 2 530 Kbps
IMDb Rating: 5.7/10   392 votes
Genre: Action | Drama | Comedy
Release Date: 16 July 2010
IMDb Link: http://www.imdb.com/title/tt1268987/
Source: 720p Bluray x264-WiKi

[color=red]Video[/color]
Format: MPEG-4 Visual
Format profile: Streaming Video@L1
Format settings, BVOP: Yes
Format settings, QPel: No
Format settings, GMC: No warppoints
Format settings, Matrix: Default (H.263)
Muxing mode: Packed bitstream
Codec ID: XVID
Bit rate: 2 072 Kbps
Width: 720 pixels
Height: 304 pixels
Display aspect ratio: 2.35
Frame rate: 23.976 fps
Resolution: 24 bits
Colorimetry: 4:2:0
Scan type: Progressive
Bits/(Pixel*Frame): 0.395
Stream size: 1.19 GiB (82%)

[color=red]Audio[/color]
Format: AC-3
Bit rate mode: Constant
Bit rate: 448 Kbps
Channel(s): 6 channels
Sampling rate: 48.0 KHz
Stream size: 263 MiB (18%)

[img]http://leetleech.org/images/89524873606771859129.png[/img]
A dry action-comedy about two teams of government assassins working 
out of a top-secret underground facility using code names from the 
Tarot deck. When our hero--The Fool--arrives for his first day at work 
to find that the boss has been killed under mysterious circumstances, 
he must find the killer before the whole place blows up.

[color=red]Tagline:[/color] 
Two rival teams of assassins. One killer day at the office. 

[img]http://leetleech.org/images/84434050717770922575.png[/img]
Zach Galifianakis	 ... 	Hermit
Emilie de Ravin	... 	Heirophant
Maggie Q	... 	High Priestess
Odette Yustman	... 	Temperence
Rob Corddry	... 	Chariot
Adam Scott	... 	Magician
Ellen Barkin	... 	Empress
Ving Rhames	... 	Judgement
Brandon T. Jackson	... 	Tower
Jeffrey Tambor	... 	Devil
Joe Anderson	... 	Fool
Beth Grant	... 	Interviewer
Bob Odenkirk	... 	Emperor
Tim Bagley	... 	Carl
Michael Hitchcock	... 	Neal
Matt Baker	... 	Bathroom Victim

[color=red]GREETZ[/color]
Noir | xXTHORNXx | bigimac | LUSi |

kempas | KaN1vE | mike160 | skillz |

Lungbuster | Sheikh | dillon1369 |

FLAWL3SS | AND ALL P2P![/b]

[img]http://leetleech.org/images/95521316153253938506.png[/img]
[img]http://leetleech.org/images/00153730339730821164.png[/img]
[img]http://leetleech.org/images/08639844345238608420.png[/img]
[img]http://leetleech.org/images/30844910928635391581.png[/img]
[img]http://leetleech.org/images/23112313764273988830.png[/img]
[img]http://leetleech.org/images/08841069719219014684.png[/img]
[img]http://leetleech.org/images/54205583593585487178.png[/img]
[img]http://leetleech.org/images/36576617075709494950.png[/img]
[img]http://leetleech.org/images/12755021538703799215.png[/img]